<?xml version="1.0" standalone="no"?>
<!DOCTYPE svg PUBLIC "-//W3C//DTD SVG 20010904//EN"
 "http://www.w3.org/TR/2001/REC-SVG-20010904/DTD/svg10.dtd">
<svg version="1.0" xmlns="http://www.w3.org/2000/svg"
 width="900.000000pt" height="1002.000000pt" viewBox="0 0 900.000000 1002.000000"
 preserveAspectRatio="xMidYMid meet">
<metadata>

</metadata>
<g transform="translate(0.000000,1002.000000) scale(0.100000,-0.100000)"
fill="#BC4944" stroke="none">
<path d="M5040 9961 c-161 -52 -303 -156 -384 -283 -40 -64 -106 -219 -106
-252 0 -11 -9 -43 -19 -71 -11 -27 -24 -75 -30 -105 -6 -30 -20 -101 -32 -158
-12 -57 -19 -112 -16 -124 3 -11 2 -30 -3 -42 -10 -28 -30 -213 -38 -351 -11
-217 -4 -463 18 -636 5 -44 15 -114 20 -156 10 -75 25 -144 68 -303 41 -154
137 -325 228 -411 35 -32 129 -99 139 -99 2 0 26 -13 52 -28 80 -47 241 -113
383 -157 41 -13 86 -28 100 -33 25 -9 183 -41 311 -61 86 -14 315 -14 376 0
97 22 181 50 193 64 7 8 17 15 23 15 29 0 177 157 177 188 0 5 9 17 20 27 11
10 20 22 20 26 0 5 11 32 24 61 80 177 114 484 93 833 -4 72 -12 153 -17 180
-9 50 -24 148 -41 262 -23 161 -138 574 -193 697 -14 32 -26 64 -26 70 0 6
-21 54 -46 106 -132 275 -371 531 -599 642 -33 16 -72 36 -87 44 -14 8 -35 14
-45 14 -10 0 -24 5 -29 10 -6 6 -42 19 -80 30 -95 27 -371 28 -454 1z"/>
<path d="M3000 9744 c-110 -26 -136 -34 -197 -58 -35 -13 -76 -34 -92 -45 -16
-12 -32 -21 -36 -21 -19 0 -131 -88 -204 -161 -178 -179 -244 -306 -350 -679
-54 -188 -111 -660 -111 -917 0 -124 28 -456 46 -548 32 -161 42 -202 74 -294
80 -239 181 -388 324 -482 94 -61 248 -96 374 -85 159 15 382 70 472 117 19
10 78 38 131 62 85 39 235 127 249 146 3 4 32 28 65 53 93 72 177 159 216 224
31 53 46 90 95 239 62 189 61 672 -1 1045 -27 164 -101 480 -116 495 -5 5 -9
18 -9 30 0 17 -43 151 -90 285 -133 372 -276 540 -506 595 -73 18 -259 17
-334 -1z"/>
<path d="M7930 8299 c-72 -13 -178 -59 -275 -118 -70 -42 -121 -86 -227 -193
-76 -77 -138 -143 -138 -148 0 -5 -13 -24 -29 -42 -16 -19 -41 -56 -55 -83
-15 -27 -33 -56 -40 -65 -16 -17 -138 -269 -162 -333 -76 -200 -130 -394 -144
-517 -5 -41 -14 -95 -19 -120 -22 -97 -8 -254 34 -375 27 -82 88 -201 146
-284 89 -129 303 -340 439 -431 12 -8 33 -23 45 -32 13 -10 25 -18 28 -18 3 0
16 -10 30 -22 62 -55 297 -178 424 -222 126 -43 198 -56 309 -56 115 0 202 21
276 67 60 37 188 157 188 176 0 6 6 18 14 26 38 43 126 261 126 313 0 13 7 42
15 65 38 108 46 243 41 638 -4 400 -7 439 -32 556 -8 41 -17 97 -20 124 -2 28
-15 91 -29 140 -15 50 -28 101 -30 115 -17 113 -135 388 -229 534 -42 66 -187
214 -226 232 -112 51 -138 62 -161 68 -45 10 -252 14 -299 5z"/>
<path d="M870 7950 c-8 -5 -30 -10 -49 -10 -50 0 -188 -71 -276 -141 -122 -98
-315 -323 -315 -368 0 -8 -6 -22 -14 -30 -26 -28 -82 -153 -113 -251 -45 -140
-74 -271 -86 -390 -15 -138 -15 -506 0 -645 12 -117 56 -353 74 -395 6 -14 18
-50 25 -80 30 -114 99 -268 174 -390 81 -131 227 -280 274 -280 8 0 17 -4 21
-9 11 -19 109 -43 168 -43 73 1 174 36 244 83 42 28 220 198 522 499 111 110
241 269 241 294 0 3 14 27 30 53 17 26 30 55 30 66 0 10 6 31 14 45 24 44 54
161 67 258 13 105 8 349 -11 464 -16 105 -70 339 -85 375 -21 50 -39 99 -41
112 -4 28 -68 174 -80 184 -8 6 -14 19 -15 28 0 9 -14 36 -29 61 -16 25 -36
59 -43 75 -8 17 -24 39 -37 50 -12 11 -30 36 -40 55 -10 19 -65 81 -123 137
-155 148 -275 203 -446 203 -36 0 -73 -5 -81 -10z"/>
<path d="M4470 6414 c-163 -12 -396 -60 -525 -109 -39 -15 -88 -33 -110 -42
-64 -24 -193 -91 -290 -151 -108 -66 -200 -139 -315 -247 -231 -216 -407 -349
-550 -417 -36 -16 -73 -34 -82 -39 -10 -5 -23 -9 -29 -9 -6 0 -25 -6 -42 -14
-69 -30 -245 -64 -502 -95 -197 -25 -329 -72 -454 -164 -66 -48 -217 -199
-253 -254 -76 -116 -107 -166 -145 -246 -57 -116 -98 -220 -122 -309 -11 -40
-24 -86 -29 -103 -14 -42 -53 -257 -58 -319 -14 -182 -16 -321 -5 -425 16
-144 55 -341 87 -435 13 -39 24 -77 24 -84 0 -36 131 -334 225 -512 10 -19 23
-44 29 -55 26 -52 62 -120 76 -144 67 -116 86 -145 124 -185 68 -74 106 -62
188 61 96 142 105 185 112 503 3 152 24 346 44 400 5 15 18 63 45 175 13 54
45 145 92 260 16 39 15 44 -9 130 -25 88 -25 95 -19 325 9 379 7 468 -12 545
-38 159 -30 190 48 179 23 -4 46 -10 52 -15 5 -5 16 -9 25 -9 8 0 40 -13 70
-30 30 -16 61 -29 68 -30 24 0 35 56 42 227 9 201 20 236 80 241 37 4 105 -14
130 -33 8 -6 34 -21 56 -33 53 -26 149 -99 195 -149 51 -54 149 -184 149 -198
0 -7 10 -27 23 -46 23 -35 67 -170 67 -208 0 -39 33 -43 96 -11 33 16 71 30
85 30 14 0 48 6 75 14 135 40 278 30 587 -40 100 -22 228 -19 306 6 71 24 371
168 426 206 20 13 38 24 40 24 3 0 30 17 61 38 31 20 64 42 73 47 63 40 83 55
141 111 40 39 82 69 108 78 192 68 313 -14 366 -244 9 -41 26 -102 36 -135 21
-68 50 -243 50 -307 0 -24 -7 -90 -16 -148 -18 -114 -78 -273 -142 -378 -27
-45 -34 -66 -31 -97 1 -22 3 -63 3 -91 -1 -139 -168 -336 -431 -510 -62 -40
-130 -83 -150 -94 -235 -127 -466 -322 -525 -441 -46 -93 -66 -142 -78 -189
-6 -25 -16 -58 -21 -75 -22 -65 -33 -358 -21 -562 6 -109 15 -211 20 -228 6
-16 15 -64 22 -105 7 -41 20 -102 30 -135 10 -33 26 -87 36 -120 10 -33 21
-64 26 -70 4 -5 8 -16 8 -25 0 -26 96 -215 136 -268 155 -205 357 -377 564
-478 52 -26 104 -52 115 -57 11 -6 33 -14 50 -18 16 -4 57 -17 90 -29 81 -28
256 -42 383 -30 128 12 223 55 310 139 71 70 102 124 141 244 17 51 46 130 66
177 20 47 40 96 44 110 5 14 27 55 50 93 22 37 41 69 41 71 0 10 76 116 118
164 40 46 193 176 243 207 65 40 129 88 158 118 29 31 32 39 26 69 -9 40 -20
55 -56 73 -71 37 -172 18 -344 -66 -169 -82 -206 -95 -313 -110 -178 -26 -361
27 -483 139 -31 28 -74 59 -95 68 -104 43 -127 94 -100 221 21 100 35 153 48
176 14 28 24 153 19 237 -3 41 -5 134 -5 205 l1 130 86 175 c124 255 150 323
172 450 18 106 18 195 0 345 -30 245 -30 248 -3 279 34 40 101 46 194 16 85
-27 181 -69 213 -92 13 -10 28 -18 33 -18 6 0 49 -32 97 -72 72 -61 176 -172
235 -253 11 -15 19 -17 29 -10 8 6 33 22 55 38 23 15 59 46 79 68 21 23 44 46
51 53 8 6 53 49 102 96 48 47 104 94 124 104 35 19 37 19 77 1 27 -13 48 -33
66 -62 14 -24 29 -43 34 -43 5 0 9 -8 9 -17 0 -10 12 -38 26 -63 15 -25 30
-58 35 -75 4 -16 19 -68 33 -115 14 -47 31 -118 37 -158 10 -59 16 -75 33 -82
12 -4 73 -25 136 -45 111 -36 294 -121 392 -181 194 -121 397 -311 533 -502
83 -116 112 -137 152 -111 24 15 61 73 69 107 4 15 10 32 15 37 4 6 19 49 33
95 13 47 31 105 39 130 19 54 45 158 57 220 4 25 18 88 30 140 12 52 26 129
30 170 5 41 16 120 24 175 22 143 23 604 1 735 -9 52 -20 124 -25 160 -5 36
-12 76 -16 90 -24 92 -45 152 -69 195 -15 28 -34 62 -42 77 -26 49 -136 155
-223 214 -61 42 -256 134 -282 134 -8 0 -18 3 -22 7 -12 13 -100 43 -124 43
-12 0 -33 6 -45 14 -12 7 -44 19 -72 25 -48 11 -125 33 -300 87 -81 25 -224
76 -280 99 -76 31 -181 78 -195 86 -65 38 -166 96 -188 108 -15 8 -29 17 -32
21 -3 4 -41 30 -85 58 -44 29 -95 64 -114 79 -18 16 -49 36 -67 45 -18 10 -37
24 -41 32 -4 7 -27 26 -49 42 -23 16 -76 56 -118 89 -42 33 -93 69 -111 81
-19 11 -46 31 -59 43 -30 28 -103 79 -173 121 -28 17 -57 38 -63 45 -7 8 -16
15 -21 15 -5 0 -38 18 -74 40 -36 22 -70 40 -75 40 -5 0 -35 15 -67 34 -32 19
-90 46 -128 61 -39 14 -78 31 -88 36 -31 17 -223 79 -243 79 -11 0 -43 9 -72
20 -29 11 -62 20 -74 20 -12 0 -35 4 -52 9 -97 29 -391 54 -526 45z"/>
<path d="M2273 2089 c-23 -11 -55 -37 -70 -57 l-28 -37 -2 -219 c-2 -163 -6
-223 -15 -232 -10 -9 -75 -14 -240 -16 l-227 -3 -40 -39 c-45 -44 -53 -77 -53
-227 1 -119 9 -169 36 -197 44 -49 61 -52 289 -52 198 0 215 -1 231 -19 16
-17 17 -42 16 -210 -1 -205 6 -253 45 -299 35 -42 84 -52 245 -52 l143 0 48
49 49 48 0 220 c0 207 1 220 20 241 20 21 27 22 240 22 l219 0 36 31 c60 53
75 97 75 217 0 131 -11 169 -67 224 l-44 43 -224 3 c-193 3 -226 6 -238 20
-12 14 -16 60 -19 238 l-3 221 -30 32 c-46 50 -82 61 -223 67 -115 4 -131 3
-169 -17z"/>
</g>
</svg>
